<?xml version="1.0" encoding="UTF-8"?>
<svg width="32px" height="32px" viewBox="0 0 32 32" version="1.1" xmlns="http://www.w3.org/2000/svg" xmlns:xlink="http://www.w3.org/1999/xlink">
    <!-- Generator: Sketch 52.3 (67297) - http://www.bohemiancoding.com/sketch -->
    <title>Round/Arrows/ArrowRight_Chevron@SVG</title>
    <desc>Created with Sketch.</desc>
    <defs>
        <rect id="path-1" x="0" y="0" width="32" height="32"></rect>
    </defs>
    <g id="Round/Arrows/ArrowRight_Chevron" stroke="none" stroke-width="1" fill="none" fill-rule="evenodd">
        <g id="Icon">
            <mask id="mask-2" fill="white">
                <use xlink:href="#path-1"></use>
            </mask>
            <g id="Mask"></g>
            <path d="M16,31 C7.71572875,31 1,24.2842712 1,16 C1,7.71572875 7.71572875,1 16,1 C24.2842712,1 31,7.71572875 31,16 C31,24.2842712 24.2842712,31 16,31 Z M13.6213203,16 L19.0606602,10.5606602 C19.6464466,9.97487373 19.6464466,9.02512627 19.0606602,8.43933983 C18.4748737,7.85355339 17.5251263,7.85355339 16.9393398,8.43933983 L10.4393398,14.9393398 C9.85355339,15.5251263 9.85355339,16.4748737 10.4393398,17.0606602 L16.9393398,23.5606602 C17.5251263,24.1464466 18.4748737,24.1464466 19.0606602,23.5606602 C19.6464466,22.9748737 19.6464466,22.0251263 19.0606602,21.4393398 L13.6213203,16 Z" id="Combined-Shape" fill="#161616" mask="url(#mask-2)"></path>
        </g>
    </g>
</svg>