<?xml version="1.0" encoding="UTF-8"?>
<svg width="32px" height="32px" viewBox="0 0 32 32" version="1.1" xmlns="http://www.w3.org/2000/svg" xmlns:xlink="http://www.w3.org/1999/xlink">
    <!-- Generator: Sketch 52.3 (67297) - http://www.bohemiancoding.com/sketch -->
    <title>Basic/Essentials/Cross@SVG</title>
    <desc>Created with Sketch.</desc>
    <defs>
        <rect id="path-1" x="0" y="0" width="32" height="32"></rect>
    </defs>
    <g id="Basic/Essentials/Cross" stroke="none" stroke-width="1" fill="none" fill-rule="evenodd">
        <g id="Icon">
            <mask id="mask-2" fill="white">
                <use xlink:href="#path-1"></use>
            </mask>
            <g id="Mask"></g>
            <path d="M18.1213203,16 L28.5606602,26.4393398 C29.1464466,27.0251263 29.1464466,27.9748737 28.5606602,28.5606602 C27.9748737,29.1464466 27.0251263,29.1464466 26.4393398,28.5606602 L16,18.1213203 L5.56066017,28.5606602 C4.97487373,29.1464466 4.02512627,29.1464466 3.43933983,28.5606602 C2.85355339,27.9748737 2.85355339,27.0251263 3.43933983,26.4393398 L13.8786797,16 L3.43933983,5.56066017 C2.85355339,4.97487373 2.85355339,4.02512627 3.43933983,3.43933983 C4.02512627,2.85355339 4.97487373,2.85355339 5.56066017,3.43933983 L16,13.8786797 L26.4393398,3.43933983 C27.0251263,2.85355339 27.9748737,2.85355339 28.5606602,3.43933983 C29.1464466,4.02512627 29.1464466,4.97487373 28.5606602,5.56066017 L18.1213203,16 Z" id="Combined-Shape" fill="#A4212C" fill-rule="nonzero" mask="url(#mask-2)"></path>
        </g>
    </g>
</svg>