<?xml version="1.0" encoding="UTF-8"?>
<svg width="32px" height="32px" viewBox="0 0 32 32" version="1.1" xmlns="http://www.w3.org/2000/svg" xmlns:xlink="http://www.w3.org/1999/xlink">
    <!-- Generator: Sketch 52.3 (67297) - http://www.bohemiancoding.com/sketch -->
    <title>Basic/Essentials/DocumentDark_Blank@SVG</title>
    <desc>Created with Sketch.</desc>
    <defs>
        <rect id="path-1" x="0" y="0" width="32" height="32"></rect>
    </defs>
    <g id="Basic/Essentials/DocumentDark_Blank" stroke="none" stroke-width="1" fill="none" fill-rule="evenodd">
        <g id="Icon">
            <mask id="mask-2" fill="white">
                <use xlink:href="#path-1"></use>
            </mask>
            <g id="Mask"></g>
            <path d="M28,14.1277704 L28,25.8723118 C28,27.6553493 27.8143488,28.3019218 27.4657346,28.9537736 C27.1171204,29.6056255 26.6055433,30.1172026 25.9536914,30.4658168 C25.3018396,30.814431 24.6552671,31.0000822 22.8722296,31.0000822 L9.1276101,31.0000822 C7.34457262,31.0000822 6.69800015,30.814431 6.0461483,30.4658168 C5.39429645,30.1172026 4.8827193,29.6056255 4.53410511,28.9537736 C4.18549093,28.3019218 3.9998397,27.6553493 3.9998397,25.8723118 L3.9998397,6.1277704 C3.9998397,4.34473292 4.18549093,3.69816044 4.53410511,3.04630859 C4.8827193,2.39445674 5.39429645,1.88287959 6.0461483,1.53426541 C6.68220748,1.19409724 7.31323999,1.00909135 9,1.00032659 L14.8722296,1 C14.9154831,1 14.9580678,1.00010925 15,1.00032742 L19,1 C20.3177277,1 20.7915807,1.03583762 21.501155,1.27591915 C22.5501216,1.63083268 23.4536509,2.3323306 25.0606602,3.93933983 C26.6676694,5.54634906 27.3691673,6.44987838 27.7240809,7.49884504 C27.9641624,8.20841933 28,8.6822723 28,10 L28,14 C27.9998908,14.0419322 28,14.0845169 28,14.1277704 Z M19.7801873,4.67391505 C19.9267291,5.11594337 20,5.55797168 20,6 L20,8 C20,8.55228475 20.4477153,9 21,9 L23,9 C23.4420283,9 23.8840566,9.07327089 24.3260849,9.21981266 L24.3260816,9.21982285 C24.5472514,9.29314536 24.7859847,9.17329139 24.8593072,8.95212153 C24.8808882,8.88702455 24.8862747,8.8176479 24.875,8.75 L24.8527494,8.6164962 C24.7852388,8.21143304 24.6213903,7.82852041 24.375,7.5 C24.1253149,7.16708649 23.852315,6.85231501 23.5580583,6.55805826 L23,6 L22.4419417,5.44194174 C22.147685,5.14768499 21.8329135,4.87468513 21.5,4.625 C21.1714796,4.3786097 20.788567,4.21476116 20.3835038,4.14725063 L20.25,4.125 C20.0201632,4.08669387 19.8027905,4.24196013 19.7644843,4.4717969 C19.7532097,4.53944481 19.7585961,4.60882146 19.7801771,4.67391843 L19.7801873,4.67391505 Z" id="Combined-Shape" fill="#000000" fill-rule="nonzero" mask="url(#mask-2)"></path>
        </g>
    </g>
</svg>