<?xml version="1.0" encoding="UTF-8"?>
<svg width="32px" height="32px" viewBox="0 0 32 32" version="1.1" xmlns="http://www.w3.org/2000/svg" xmlns:xlink="http://www.w3.org/1999/xlink">
    <!-- Generator: Sketch 52.3 (67297) - http://www.bohemiancoding.com/sketch -->
    <title>Basic/Essentials/Help@SVG</title>
    <desc>Created with Sketch.</desc>
    <defs>
        <rect id="path-1" x="0" y="0" width="32" height="32"></rect>
    </defs>
    <g id="Basic/Essentials/Help" stroke="none" stroke-width="1" fill="none" fill-rule="evenodd">
        <g id="Icon">
            <mask id="mask-2" fill="white">
                <use xlink:href="#path-1"></use>
            </mask>
            <g id="Mask"></g>
            <path d="M6.85714286,9.14285714 C7.04081633,4.51020408 10.2040816,1 16.122449,1 C21.5102041,1 25.1428571,4.20408163 25.1428571,8.57142857 C25.1428571,11.7346939 23.5510204,13.9591837 20.8571429,15.5714286 C18.2244898,17.122449 17.4693878,18.2040816 17.4693878,20.3061224 L17.4693878,21.5510204 L13.244898,21.5510204 L13.2244898,19.9183673 C13.122449,17.0408163 14.3673469,15.2040816 17.1632653,13.5306122 C19.6326531,12.0408163 20.5102041,10.8571429 20.5102041,8.75510204 C20.5102041,6.44897959 18.6938776,4.75510204 15.8979592,4.75510204 C13.0816327,4.75510204 11.2653061,6.44897959 11.0816327,9.14285714 L6.85714286,9.14285714 Z M15.3877551,31 C13.8979592,31 12.7142857,29.8571429 12.7142857,28.3673469 C12.7142857,26.877551 13.8979592,25.7346939 15.3877551,25.7346939 C16.9183673,25.7346939 18.0816327,26.877551 18.0816327,28.3673469 C18.0816327,29.8571429 16.9183673,31 15.3877551,31 Z" id="?" fill="#000000" mask="url(#mask-2)"></path>
        </g>
    </g>
</svg>