<?xml version="1.0" encoding="UTF-8"?>
<svg width="32px" height="32px" viewBox="0 0 32 32" version="1.1" xmlns="http://www.w3.org/2000/svg" xmlns:xlink="http://www.w3.org/1999/xlink">
    <!-- Generator: Sketch 52.3 (67297) - http://www.bohemiancoding.com/sketch -->
    <title>Basic/Essentials/Home@SVG</title>
    <desc>Created with Sketch.</desc>
    <defs>
        <rect id="path-1" x="0" y="0" width="32" height="32"></rect>
    </defs>
    <g id="Basic/Essentials/Home" stroke="none" stroke-width="1" fill="none" fill-rule="evenodd">
        <g id="Icon">
            <mask id="mask-2" fill="white">
                <use xlink:href="#path-1"></use>
            </mask>
            <g id="Mask"></g>
            <g id="Group" mask="url(#mask-2)" fill="#000000" fill-rule="nonzero">
                <g transform="translate(0.000000, 1.000000)" id="Combined-Shape">
                    <path d="M19,30 L19,24 C19,22.3431458 17.6568542,21 16,21 C14.3431458,21 13,22.3431458 13,24 L13,30 L4.5,30 C3.67157288,30 3,29.3284271 3,28.5 L3,12.7657773 L2.37976472,13.2149132 C1.7087867,13.7007938 0.770967455,13.5507427 0.285086818,12.8797647 C-0.20079382,12.2087867 -0.0507427412,11.2709675 0.620235282,10.7850868 L15.1202353,0.285086818 C15.645157,-0.0950289392 16.354843,-0.0950289392 16.8797647,0.285086818 L31.3797647,10.7850868 C32.0507427,11.2709675 32.2007938,12.2087867 31.7149132,12.8797647 C31.2290325,13.5507427 30.2912133,13.7007938 29.6202353,13.2149132 L29,12.7657773 L29,28.5 C29,29.3284271 28.3284271,30 27.5,30 L19,30 Z"></path>
                </g>
            </g>
        </g>
    </g>
</svg>