<?xml version="1.0" encoding="UTF-8"?>
<svg width="32px" height="32px" viewBox="0 0 32 32" version="1.1" xmlns="http://www.w3.org/2000/svg" xmlns:xlink="http://www.w3.org/1999/xlink">
    <!-- Generator: Sketch 52.3 (67297) - http://www.bohemiancoding.com/sketch -->
    <title>Basic/Essentials/Settings@SVG</title>
    <desc>Created with Sketch.</desc>
    <defs>
        <rect id="path-1" x="0" y="0" width="32" height="32"></rect>
    </defs>
    <g id="Basic/Essentials/Settings" stroke="none" stroke-width="1" fill="none" fill-rule="evenodd">
        <g id="Icon">
            <mask id="mask-2" fill="white">
                <use xlink:href="#path-1"></use>
            </mask>
            <g id="Mask"></g>
            <path d="M25.9506248,17 L22.9291111,17 C22.4438815,20.3922941 19.5264719,23 16,23 C15.0816204,23 14.204548,22.823143 13.4009831,22.5016294 L11.8898499,25.1189889 C13.1436273,25.6849816 14.5350254,26 16,26 C21.1853481,26 25.4489003,22.0533227 25.9506248,17 Z M25.9506248,15 C25.4489003,9.94667731 21.1853481,6 16,6 C14.5350254,6 13.1436273,6.31501844 11.8898499,6.88101114 L13.4009831,9.4983706 C14.204548,9.17685697 15.0816204,9 16,9 C19.5264719,9 22.4438815,11.6077059 22.9291111,15 L25.9506248,15 Z M10.1586637,24.1174913 L11.6697255,21.5002554 C10.0438077,20.2184296 9,18.231112 9,16 C9,13.768888 10.0438077,11.7815704 11.6697255,10.4997446 L10.1586637,7.88250872 C7.63974525,9.69830808 6,12.6576625 6,16 C6,19.3423375 7.63974525,22.3016919 10.1586637,24.1174913 Z M2.90165358,13.7881762 L1.7308404,13.2880549 C1.45625228,13.1707626 1.30969626,12.8694103 1.3869771,12.5809943 L1.63524811,11.6544343 C1.71252895,11.3660183 1.99012631,11.1783176 2.28657275,11.2140335 L3.55058737,11.3663223 C3.82572272,11.3994707 4.07563606,11.2033015 4.10878443,10.9281662 C4.12975673,10.7540937 4.05834846,10.5816989 3.92043102,10.4734408 L2.91895327,9.68733193 C2.68407899,9.50296763 2.62051245,9.17395221 2.76980756,8.91536549 L3.24943032,8.08463451 C3.39872544,7.82604779 3.71544441,7.71659032 3.99254572,7.82781525 L5.17407485,8.302066 C5.43125575,8.40529514 5.72342583,8.28049257 5.82665497,8.02331166 C5.89196591,7.86059863 5.86760988,7.67559623 5.76241113,7.53533123 L4.99851785,6.51680686 C4.81936371,6.27793468 4.8431186,5.94367796 5.05425378,5.73254279 L5.73254279,5.05425378 C5.94367796,4.8431186 6.27793468,4.81936371 6.51680686,4.99851785 L7.53533123,5.76241113 C7.75703124,5.92868614 8.07154714,5.88375529 8.23782215,5.66205528 C8.34302091,5.52179028 8.36737693,5.33678788 8.302066,5.17407485 L7.82781525,3.99254572 C7.71659032,3.71544441 7.82604779,3.39872544 8.08463451,3.24943032 L8.91536549,2.76980756 C9.17395221,2.62051245 9.50296763,2.68407899 9.68733193,2.91895327 L10.4734408,3.92043102 C10.6445514,4.13842053 10.9599794,4.17642337 11.1779689,4.00531274 C11.3158864,3.8970546 11.3872946,3.7246598 11.3663223,3.55058737 L11.2140335,2.28657275 C11.1783176,1.99012631 11.3660183,1.71252895 11.6544343,1.63524811 L12.5809943,1.3869771 C12.8694103,1.30969626 13.1707626,1.45625228 13.2880549,1.7308404 L13.7881762,2.90165358 C13.8970366,3.15650197 14.1918808,3.27484866 14.4467292,3.16598832 C14.6079665,3.09711464 14.7215606,2.94907588 14.7463562,2.7755068 L14.9264075,1.51514719 C14.9686346,1.21955794 15.221787,1 15.5203772,1 L16.4796228,1 C16.778213,1 17.0313654,1.21955794 17.0735925,1.51514719 L17.2536438,2.7755068 C17.2928352,3.04984657 17.5470025,3.24047199 17.8213422,3.20128059 C17.9949113,3.17648501 18.1429501,3.06289087 18.2118238,2.90165358 L18.7119451,1.7308404 C18.8292374,1.45625228 19.1305897,1.30969626 19.4190057,1.3869771 L20.3455657,1.63524811 C20.6339817,1.71252895 20.8216824,1.99012631 20.7859665,2.28657275 L20.6336777,3.55058737 C20.6005293,3.82572272 20.7966985,4.07563606 21.0718338,4.10878443 C21.2459063,4.12975673 21.4183011,4.05834846 21.5265592,3.92043102 L22.3126681,2.91895327 C22.4970324,2.68407899 22.8260478,2.62051245 23.0846345,2.76980756 L23.9153655,3.24943032 C24.1739522,3.39872544 24.2834097,3.71544441 24.1721847,3.99254572 L23.697934,5.17407485 C23.5947049,5.43125575 23.7195074,5.72342583 23.9766883,5.82665497 C24.1394014,5.89196591 24.3244038,5.86760988 24.4646688,5.76241113 L25.4831931,4.99851785 C25.7220653,4.81936371 26.056322,4.8431186 26.2674572,5.05425378 L26.9457462,5.73254279 C27.1568814,5.94367796 27.1806363,6.27793468 27.0014822,6.51680686 L26.2375889,7.53533123 C26.0713139,7.75703124 26.1162447,8.07154714 26.3379447,8.23782215 C26.4782097,8.34302091 26.6632121,8.36737693 26.8259252,8.302066 L28.0074543,7.82781525 C28.2845556,7.71659032 28.6012746,7.82604779 28.7505697,8.08463451 L29.2301924,8.91536549 C29.3794875,9.17395221 29.315921,9.50296763 29.0810467,9.68733193 L28.079569,10.4734408 C27.8615795,10.6445514 27.8235766,10.9599794 27.9946873,11.1779689 C28.1029454,11.3158864 28.2753402,11.3872946 28.4494126,11.3663223 L29.7134272,11.2140335 C30.0098737,11.1783176 30.2874711,11.3660183 30.3647519,11.6544343 L30.6130229,12.5809943 C30.6903037,12.8694103 30.5437477,13.1707626 30.2691596,13.2880549 L29.0983464,13.7881762 C28.843498,13.8970366 28.7251513,14.1918808 28.8340117,14.4467292 C28.9028854,14.6079665 29.0509241,14.7215606 29.2244932,14.7463562 L30.4848528,14.9264075 C30.7804421,14.9686346 31,15.221787 31,15.5203772 L31,16.4796228 C31,16.778213 30.7804421,17.0313654 30.4848528,17.0735925 L29.2244932,17.2536438 C28.9501534,17.2928352 28.759528,17.5470025 28.7987194,17.8213422 C28.823515,17.9949113 28.9371091,18.1429501 29.0983464,18.2118238 L30.2691596,18.7119451 C30.5437477,18.8292374 30.6903037,19.1305897 30.6130229,19.4190057 L30.3647519,20.3455657 C30.2874711,20.6339817 30.0098737,20.8216824 29.7134272,20.7859665 L28.4494126,20.6336777 C28.1742773,20.6005293 27.9243639,20.7966985 27.8912156,21.0718338 C27.8702433,21.2459063 27.9416515,21.4183011 28.079569,21.5265592 L29.0810467,22.3126681 C29.315921,22.4970324 29.3794875,22.8260478 29.2301924,23.0846345 L28.7505697,23.9153655 C28.6012746,24.1739522 28.2845556,24.2834097 28.0074543,24.1721847 L26.8259252,23.697934 C26.5687442,23.5947049 26.2765742,23.7195074 26.173345,23.9766883 C26.1080341,24.1394014 26.1323901,24.3244038 26.2375889,24.4646688 L27.0014822,25.4831931 C27.1806363,25.7220653 27.1568814,26.056322 26.9457462,26.2674572 L26.2674572,26.9457462 C26.056322,27.1568814 25.7220653,27.1806363 25.4831931,27.0014822 L24.4646688,26.2375889 C24.2429688,26.0713139 23.9284529,26.1162447 23.7621778,26.3379447 C23.6569791,26.4782097 23.6326231,26.6632121 23.697934,26.8259252 L24.1721847,28.0074543 C24.2834097,28.2845556 24.1739522,28.6012746 23.9153655,28.7505697 L23.0846345,29.2301924 C22.8260478,29.3794875 22.4970324,29.315921 22.3126681,29.0810467 L21.5265592,28.079569 C21.3554486,27.8615795 21.0400206,27.8235766 20.8220311,27.9946873 C20.6841136,28.1029454 20.6127054,28.2753402 20.6336777,28.4494126 L20.7859665,29.7134272 C20.8216824,30.0098737 20.6339817,30.2874711 20.3455657,30.3647519 L19.4190057,30.6130229 C19.1305897,30.6903037 18.8292374,30.5437477 18.7119451,30.2691596 L18.2118238,29.0983464 C18.1029634,28.843498 17.8081192,28.7251513 17.5532708,28.8340117 C17.3920335,28.9028854 17.2784394,29.0509241 17.2536438,29.2244932 L17.0735925,30.4848528 C17.0313654,30.7804421 16.778213,31 16.4796228,31 L15.5203772,31 C15.221787,31 14.9686346,30.7804421 14.9264075,30.4848528 L14.7463562,29.2244932 C14.7071648,28.9501534 14.4529975,28.759528 14.1786578,28.7987194 C14.0050887,28.823515 13.8570499,28.9371091 13.7881762,29.0983464 L13.2880549,30.2691596 C13.1707626,30.5437477 12.8694103,30.6903037 12.5809943,30.6130229 L11.6544343,30.3647519 C11.3660183,30.2874711 11.1783176,30.0098737 11.2140335,29.7134272 L11.3663223,28.4494126 C11.3994707,28.1742773 11.2033015,27.9243639 10.9281662,27.8912156 C10.7540937,27.8702433 10.5816989,27.9416515 10.4734408,28.079569 L9.68733193,29.0810467 C9.50296763,29.315921 9.17395221,29.3794875 8.91536549,29.2301924 L8.08463451,28.7505697 C7.82604779,28.6012746 7.71659032,28.2845556 7.82781525,28.0074543 L8.302066,26.8259252 C8.40529514,26.5687442 8.28049257,26.2765742 8.02331166,26.173345 C7.86059863,26.1080341 7.67559623,26.1323901 7.53533123,26.2375889 L6.51680686,27.0014822 C6.27793468,27.1806363 5.94367796,27.1568814 5.73254279,26.9457462 L5.05425378,26.2674572 C4.8431186,26.056322 4.81936371,25.7220653 4.99851785,25.4831931 L5.76241113,24.4646688 C5.92868614,24.2429688 5.88375529,23.9284529 5.66205528,23.7621778 C5.52179028,23.6569791 5.33678788,23.6326231 5.17407485,23.697934 L3.99254572,24.1721847 C3.71544441,24.2834097 3.39872544,24.1739522 3.24943032,23.9153655 L2.76980756,23.0846345 C2.62051245,22.8260478 2.68407899,22.4970324 2.91895327,22.3126681 L3.92043102,21.5265592 C4.13842053,21.3554486 4.17642337,21.0400206 4.00531274,20.8220311 C3.8970546,20.6841136 3.7246598,20.6127054 3.55058737,20.6336777 L2.28657275,20.7859665 C1.99012631,20.8216824 1.71252895,20.6339817 1.63524811,20.3455657 L1.3869771,19.4190057 C1.30969626,19.1305897 1.45625228,18.8292374 1.7308404,18.7119451 L2.90165358,18.2118238 C3.15650197,18.1029634 3.27484866,17.8081192 3.16598832,17.5532708 C3.09711464,17.3920335 2.94907588,17.2784394 2.7755068,17.2536438 L1.51514719,17.0735925 C1.21955794,17.0313654 1,16.778213 1,16.4796228 L1,15.5203772 C1,15.221787 1.21955794,14.9686346 1.51514719,14.9264075 L2.7755068,14.7463562 C3.04984657,14.7071648 3.24047199,14.4529975 3.20128059,14.1786578 C3.17648501,14.0050887 3.06289087,13.8570499 2.90165358,13.7881762 Z M16,19 C17.6568542,19 19,17.6568542 19,16 C19,14.3431458 17.6568542,13 16,13 C14.3431458,13 13,14.3431458 13,16 C13,17.6568542 14.3431458,19 16,19 Z" id="Settings" fill="#000000" mask="url(#mask-2)"></path>
        </g>
    </g>
</svg>