<?xml version="1.0" encoding="UTF-8"?>
<svg width="32px" height="32px" viewBox="0 0 32 32" version="1.1" xmlns="http://www.w3.org/2000/svg" xmlns:xlink="http://www.w3.org/1999/xlink">
    <!-- Generator: Sketch 52.3 (67297) - http://www.bohemiancoding.com/sketch -->
    <title>Basic/Essentials/Shuffle@SVG</title>
    <desc>Created with Sketch.</desc>
    <defs>
        <rect id="path-1" x="0" y="0" width="32" height="32"></rect>
    </defs>
    <g id="Basic/Essentials/Shuffle" stroke="none" stroke-width="1" fill="none" fill-rule="evenodd">
        <g id="Icon">
            <mask id="mask-2" fill="white">
                <use xlink:href="#path-1"></use>
            </mask>
            <g id="Mask"></g>
            <path d="M15.9852839,5.15063267 C17.3458131,2.67660316 19.9771107,1 23,1 C27.418278,1 31,4.581722 31,9 C31,12.0228893 29.3233968,14.6541869 26.8493673,16.0147161 C26.9485534,16.66199 27,17.324987 27,18 C27,25.1797017 21.1797017,31 14,31 C6.82029825,31 1,25.1797017 1,18 C1,10.8202983 6.82029825,5 14,5 C14.675013,5 15.33801,5.05144661 15.9852839,5.15063267 Z M15.9852839,5.15063267 C15.3572533,6.29266354 15,7.60461128 15,9 C15,13.418278 18.581722,17 23,17 C24.3953887,17 25.7073365,16.6427467 26.8493673,16.0147161 C25.9927577,10.4246064 21.5753936,6.00724226 15.9852839,5.15063267 Z" id="Shape" fill="#000000" mask="url(#mask-2)"></path>
        </g>
    </g>
</svg>