<?xml version="1.0" encoding="UTF-8"?>
<svg width="32px" height="32px" viewBox="0 0 32 32" version="1.1" xmlns="http://www.w3.org/2000/svg" xmlns:xlink="http://www.w3.org/1999/xlink">
    <!-- Generator: Sketch 52.3 (67297) - http://www.bohemiancoding.com/sketch -->
    <title>Basic/Essentials/Small@SVG</title>
    <desc>Created with Sketch.</desc>
    <defs>
        <rect id="path-1" x="0" y="0" width="32" height="32"></rect>
    </defs>
    <g id="Basic/Essentials/Small" stroke="none" stroke-width="1" fill="none" fill-rule="evenodd">
        <g id="Icon">
            <mask id="mask-2" fill="white">
                <use xlink:href="#path-1"></use>
            </mask>
            <g id="Mask"></g>
            <path d="M16,8 C13.790861,8 12,6.209139 12,4 C12,1.790861 13.790861,0 16,0 C18.209139,0 20,1.790861 20,4 C20,6.209139 18.209139,8 16,8 Z M4,20 C1.790861,20 0,18.209139 0,16 C0,13.790861 1.790861,12 4,12 C6.209139,12 8,13.790861 8,16 C8,18.209139 6.209139,20 4,20 Z M28,20 C25.790861,20 24,18.209139 24,16 C24,13.790861 25.790861,12 28,12 C30.209139,12 32,13.790861 32,16 C32,18.209139 30.209139,20 28,20 Z M16,32 C13.790861,32 12,30.209139 12,28 C12,25.790861 13.790861,24 16,24 C18.209139,24 20,25.790861 20,28 C20,30.209139 18.209139,32 16,32 Z" id="Small" fill="#000000" mask="url(#mask-2)"></path>
        </g>
    </g>
</svg>