<?xml version="1.0" encoding="UTF-8"?>
<svg width="32px" height="32px" viewBox="0 0 32 32" version="1.1" xmlns="http://www.w3.org/2000/svg" xmlns:xlink="http://www.w3.org/1999/xlink">
    <!-- Generator: Sketch 52.3 (67297) - http://www.bohemiancoding.com/sketch -->
    <title>Basic/Essentials/VolumeMute@SVG</title>
    <desc>Created with Sketch.</desc>
    <defs>
        <rect id="path-1" x="0" y="0" width="32" height="32"></rect>
    </defs>
    <g id="Basic/Essentials/VolumeMute" stroke="none" stroke-width="1" fill="none" fill-rule="evenodd">
        <g id="Icon">
            <mask id="mask-2" fill="white">
                <use xlink:href="#path-1"></use>
            </mask>
            <g id="Mask"></g>
            <path d="M8,12 L12.6829908,7.90238306 C13.514264,7.17501896 14.7777893,7.25925397 15.5051534,8.09052724 C15.8241635,8.45511023 16,8.92309016 16,9.40753645 L16,22.5924635 C16,23.697033 15.1045695,24.5924635 14,24.5924635 C13.5155537,24.5924635 13.0475738,24.4166271 12.6829908,24.0976169 L8,20 L2.5638852,20 C1.67236646,20 1.34908022,19.9071744 1.0231543,19.7328673 C0.697228371,19.5585602 0.441439796,19.3027716 0.267132704,18.9768457 C0.0928256111,18.6509198 4.01235366e-17,18.3276335 -6.90560205e-17,17.4361148 L6.90560205e-17,14.5638852 C-4.01235366e-17,13.6723665 0.0928256111,13.3490802 0.267132704,13.0231543 C0.441439796,12.6972284 0.697228371,12.4414398 1.0231543,12.2671327 C1.34908022,12.0928256 1.67236646,12 2.5638852,12 L8,12 Z" id="Speaker" fill="#B30025" mask="url(#mask-2)"></path>
            <path d="M27.4294183,16.0152047 L31.7071068,20.2928932 C32.0976311,20.6834175 32.0976311,21.3165825 31.7071068,21.7071068 C31.3165825,22.0976311 30.6834175,22.0976311 30.2928932,21.7071068 L26.0202122,17.4344258 L21.7096061,21.7756664 C21.320467,22.1675711 20.687306,22.169813 20.2954014,21.7806739 C19.9034968,21.3915348 19.9012549,20.7583738 20.2903939,20.3664692 L24.6059898,16.0202033 L20.2928932,11.7071068 C19.9023689,11.3165825 19.9023689,10.6834175 20.2928932,10.2928932 C20.6834175,9.90236893 21.3165825,9.90236893 21.7071068,10.2928932 L26.0151959,14.6009823 L30.2903939,10.2954014 C30.679533,9.90349676 31.312694,9.90125486 31.7045986,10.2903939 C32.0965032,10.679533 32.0987451,11.312694 31.7096061,11.7045986 L27.4294183,16.0152047 Z" id="Cross" fill="#B30025" fill-rule="nonzero" mask="url(#mask-2)"></path>
        </g>
    </g>
</svg>