<?xml version="1.0" encoding="UTF-8"?>
<svg width="32px" height="32px" viewBox="0 0 32 32" version="1.1" xmlns="http://www.w3.org/2000/svg" xmlns:xlink="http://www.w3.org/1999/xlink">
    <!-- Generator: Sketch 52.3 (67297) - http://www.bohemiancoding.com/sketch -->
    <title>Basic/Essentials/Volume@SVG</title>
    <desc>Created with Sketch.</desc>
    <defs>
        <rect id="path-1" x="0" y="0" width="32" height="32"></rect>
    </defs>
    <g id="Basic/Essentials/Volume" stroke="none" stroke-width="1" fill="none" fill-rule="evenodd">
        <g id="Icon">
            <mask id="mask-2" fill="white">
                <use xlink:href="#path-1"></use>
            </mask>
            <g id="Mask"></g>
            <path d="M8,12 L12.6829908,7.90238306 C13.514264,7.17501896 14.7777893,7.25925397 15.5051534,8.09052724 C15.8241635,8.45511023 16,8.92309016 16,9.40753645 L16,22.5924635 C16,23.697033 15.1045695,24.5924635 14,24.5924635 C13.5155537,24.5924635 13.0475738,24.4166271 12.6829908,24.0976169 L8,20 L2.5638852,20 C1.67236646,20 1.34908022,19.9071744 1.0231543,19.7328673 C0.697228371,19.5585602 0.441439796,19.3027716 0.267132704,18.9768457 C0.0928256111,18.6509198 4.01235366e-17,18.3276335 -6.90560205e-17,17.4361148 L6.90560205e-17,14.5638852 C-4.01235366e-17,13.6723665 0.0928256111,13.3490802 0.267132704,13.0231543 C0.441439796,12.6972284 0.697228371,12.4414398 1.0231543,12.2671327 C1.34908022,12.0928256 1.67236646,12 2.5638852,12 L8,12 Z" id="Speaker" fill="#000000" mask="url(#mask-2)"></path>
            <path d="M27.0208153,28.0208153 C26.630291,28.4113396 25.997126,28.4113396 25.6066017,28.0208153 C25.2160774,27.630291 25.2160774,26.997126 25.6066017,26.6066017 C31.4644661,20.7487373 31.4644661,11.2512627 25.6066017,5.39339828 C25.2160774,5.00287399 25.2160774,4.36970901 25.6066017,3.97918472 C25.997126,3.58866043 26.630291,3.58866043 27.0208153,3.97918472 C33.6597282,10.6180977 33.6597282,21.3819023 27.0208153,28.0208153 Z M24.1923882,25.1923882 C23.8018639,25.5829124 23.1686989,25.5829124 22.7781746,25.1923882 C22.3876503,24.8018639 22.3876503,24.1686989 22.7781746,23.7781746 C27.0739418,19.4824074 27.0739418,12.5175926 22.7781746,8.22182541 C22.3876503,7.83130112 22.3876503,7.19813614 22.7781746,6.80761184 C23.1686989,6.41708755 23.8018639,6.41708755 24.1923882,6.80761184 C29.2692039,11.8844276 29.2692039,20.1155724 24.1923882,25.1923882 Z M21.363961,22.363961 C20.9734367,22.7544853 20.3402718,22.7544853 19.9497475,22.363961 C19.5592232,21.9734367 19.5592232,21.3402718 19.9497475,20.9497475 C22.6834175,18.2160774 22.6834175,13.7839226 19.9497475,11.0502525 C19.5592232,10.6597282 19.5592232,10.0265633 19.9497475,9.63603897 C20.3402718,9.24551468 20.9734367,9.24551468 21.363961,9.63603897 C24.8786797,13.1507576 24.8786797,18.8492424 21.363961,22.363961 Z" id="Waves" fill="#000000" fill-rule="nonzero" mask="url(#mask-2)"></path>
        </g>
    </g>
</svg>